<?xml version="1.0" encoding="UTF-8"?>
<svg xmlns="http://www.w3.org/2000/svg" xmlns:xlink="http://www.w3.org/1999/xlink" version="1.1"
  viewBox="0 0 341.93 240.51">
  <defs>
    <style>
      .cls-1 {
        fill: #12002b;
      }

      .cls-1,
      .cls-2,
      .cls-3,
      .cls-4,
      .cls-5,
      .cls-6,
      .cls-7,
      .cls-8,
      .cls-9,
      .cls-10,
      .cls-11,
      .cls-12,
      .cls-13,
      .cls-14,
      .cls-15,
      .cls-16,
      .cls-17 {
        stroke-width: 0px;
      }

      .cls-2 {
        fill: #f99694;
      }

      .cls-3 {
        fill: url(#linear-gradient);
      }

      .cls-18 {
        fill: #ebebeb;
      }

      .cls-4 {
        fill: #ffaeae;
      }

      .cls-5 {
        fill: #42b983;
      }

      .cls-6 {
        fill: #1d1d1b;
        opacity: .5;
      }

      .cls-7 {
        fill: #1fffa4;
      }

      .cls-8 {
        fill: #383838;
      }

      .cls-9 {
        fill: url(#linear-gradient-4);
      }

      .cls-10 {
        fill: url(#linear-gradient-2);
      }

      .cls-11 {
        fill: url(#linear-gradient-3);
      }

      .cls-12 {
        fill: url(#linear-gradient-7);
      }

      .cls-13 {
        fill: url(#linear-gradient-5);
      }

      .cls-14 {
        fill: url(#linear-gradient-6);
      }

      .cls-15 {
        fill: #c5efdd;
      }

      .cls-16 {
        fill: #afddc8;
      }

      .cls-17,
      .cls-19 {
        fill: #fff;
      }

      .cls-19 {
        font-family: Avenir, Helvetica, Arial, sans-serif;
        font-size: 1rem;
        font-weight: 600;
        letter-spacing: .05em;
      }

      .cls-20 {
        display: none;
      }
    </style>
    <linearGradient id="linear-gradient" x1="280.42" y1="199.15" x2="238.67" y2="230.61" gradientUnits="userSpaceOnUse">
      <stop offset=".11" stop-color="#f98886" />
      <stop offset=".29" stop-color="#f99694" />
    </linearGradient>
    <linearGradient id="linear-gradient-2" x1="280.04" y1="135.45" x2="299.8" y2="197.09"
      xlink:href="#linear-gradient" />
    <linearGradient id="linear-gradient-3" x1="149.87" y1="25.45" x2="62.2" y2="31.78"
      gradientTransform="translate(137.67 177.43) rotate(-6.49) scale(.76 -.57)" xlink:href="#linear-gradient" />
    <linearGradient id="linear-gradient-4" x1="210.07" y1="107.94" x2="298.06" y2="107.94"
      xlink:href="#linear-gradient" />
    <linearGradient id="linear-gradient-5" x1="282.46" y1="113.59" x2="267.57" y2="169.45"
      xlink:href="#linear-gradient" />
    <linearGradient id="linear-gradient-6" x1="263.6" y1="72.88" x2="265.75" y2="149.91"
      xlink:href="#linear-gradient" />
    <linearGradient id="linear-gradient-7" x1="244.81" y1="140.16" x2="246.86" y2="148.38"
      xlink:href="#linear-gradient" />
  </defs>
  <g id="BACKGROUND" class="cls-20">
    <rect class="cls-18" x="-87.54" y="-76.16" width="500" height="500" />
    <rect class="cls-1" x="-87.54" y="-76.16" width="500" height="500" />
  </g>
  <g id="OBJECTS">
    <g>
      <g>
        <g>
          <path class="cls-17"
            d="M52.85,159.27h9.14v12.91h-9.14v17.45h-16.01v-17.45H3.77l-.72-10.08,33.63-53.13h16.18v50.31ZM19,159.27h17.84v-28.48l-1.05,1.83-16.79,26.65Z" />
          <path class="cls-17"
            d="M131.69,156.28c0,11.15-2.31,19.69-6.93,25.6-4.62,5.91-11.38,8.87-20.28,8.87s-15.51-2.9-20.17-8.7c-4.65-5.8-7.04-14.11-7.15-24.93v-14.85c0-11.27,2.34-19.82,7.01-25.65,4.67-5.84,11.4-8.75,20.19-8.75s15.51,2.89,20.17,8.67c4.65,5.78,7.04,14.08,7.15,24.9v14.85ZM115.68,139.95c0-6.69-.91-11.56-2.74-14.61-1.83-3.05-4.68-4.58-8.56-4.58s-6.55,1.45-8.34,4.35c-1.79,2.9-2.74,7.44-2.85,13.61v19.63c0,6.58.9,11.47,2.69,14.67,1.79,3.2,4.66,4.8,8.62,4.8s6.74-1.53,8.48-4.6c1.74-3.07,2.64-7.76,2.71-14.09v-19.19Z" />
        </g>
        <rect class="cls-2" x="8.28" y="190.7" width="208.16" height=".78" />
        <path class="cls-17"
          d="M176.99,137.01l8.81-2.43,3.43,12.45-8.81,2.43,4.64,16.83-15.44,4.25-4.64-16.83-31.89,8.79-3.37-9.53,18.31-60.16,15.6-4.3,13.36,48.5ZM144.35,146l17.2-4.74-7.56-27.45-.53,2.04-9.11,30.15Z" />
      </g>
      <text class="cls-19" transform="translate(5.24 212.84)">
        <tspan x="0" y="0">THE PAGE YOU’RE LOOKING</tspan>
        <tspan x="0" y="16.16">FOR DOESN’T EXIST.</tspan>
      </text>
    </g>
    <g>
      <path class="cls-6"
        d="M341.93,230.69c0,5.42-24.3,9.81-54.28,9.81s-54.27-4.39-54.27-9.81,24.3-9.81,54.27-9.81,54.28,4.39,54.28,9.81Z" />
      <g>
        <path class="cls-17"
          d="M163.26,184.35c2.49,1.03,4.98,2.06,7.47,3.09.7.29,1-.85.31-1.13-2.49-1.03-4.98-2.06-7.47-3.09-.7-.29-1,.85-.31,1.13h0Z" />
        <path class="cls-17"
          d="M176.92,173.35c.91,1.57,1.83,3.14,2.74,4.7.38.65,1.4.06,1.02-.59-.91-1.57-1.83-3.14-2.74-4.7-.38-.65-1.4-.06-1.01.59h0Z" />
        <path class="cls-17"
          d="M193.99,169.35c-.37,1.83-.73,3.67-1.1,5.5-.15.74.99,1.06,1.13.31.37-1.83.73-3.67,1.09-5.5.15-.74-.99-1.06-1.13-.31h0Z" />
        <path class="cls-17"
          d="M207.32,172.16c-1.31.92-2.61,1.83-3.92,2.74-.62.43-.03,1.45.59,1.02,1.31-.91,2.61-1.83,3.92-2.74.62-.43.03-1.45-.59-1.02h0Z" />
        <path class="cls-17"
          d="M206.2,184.99c2.74-1.04,5.49-2.09,8.23-3.14.7-.27.4-1.4-.31-1.13-2.74,1.05-5.49,2.09-8.23,3.14-.7.27-.4,1.4.31,1.13h0Z" />
      </g>
      <g>
        <path class="cls-3"
          d="M265.24,174.04s-9.41,27.83-8.62,29.4c.78,1.57,14.5,10.98,14.5,10.98l-10.98,5.1s-2,5.39-1.57,5.49c18.58,4.37,36.07,0,36.07,0,0,0,0-4.7-5.88-11.76-2.37-2.84-22.74-11.37-22.74-11.37l20.38-22.74-21.17-5.1Z" />
        <path class="cls-10"
          d="M257.15,94.94c26.44-4.34,83.43,58.95,52.19,93.6-7.38,8.19-32.73,13.72-44.49-3.72-10.05-14.9,10.09-65.88-6.09-67.88-16.18-2-7.05-21.1-1.61-21.99Z" />
        <path class="cls-2"
          d="M286.8,183.64s-9.41,27.83-8.62,29.4c.78,1.57,14.5,10.98,14.5,10.98l-10.98,5.1s-2,5.39-1.57,5.49c18.58,4.37,36.07,0,36.07,0,0,0,0-4.7-5.88-11.76-2.37-2.84-22.74-11.37-22.74-11.37l20.38-22.74-21.17-5.1Z" />
        <path class="cls-11"
          d="M194.48,150.81s38.75,30.36,78.5-2.06l-46.75,6.17s-27.34-21.17-37.63-11.76c-4.76,4.35-8.16,6.39-8.16,6.39l.81,2.43s8.7-1.67,13.23-1.18Z" />
        <path class="cls-7"
          d="M272.14,145.29s-6.33-10.26-25.12,2.67c0,0,.7,7.59,9.13,15.42,0,0,18.54-8.63,15.98-18.09Z" />
        <path class="cls-15" d="M249.04,145.57s3.6,10.78,10.85,16.56l-5.65,3.34s-7.32-6.35-10.35-17.21l5.16-2.7Z" />
        <path class="cls-5"
          d="M258.58,178.74c6.97,12.54,36.46,17.84,57.04,6.27,0,0,13.72-28.81-11.86-60.27l-9.7-13.52-31.16,26.46s-5.29,39.3-4.31,41.06Z" />
        <path class="cls-15"
          d="M290.13,104.45c.78.39,12.74,11.56,13.92,14.11,1.18,2.55,0,7.25-1.57,9.41-1.57,2.16-18.03,26.85-41.94,22.93-23.91-3.92,13.52-39.4,13.52-39.4l16.07-7.06Z" />
        <g>
          <path class="cls-9"
            d="M295.14,91.41c8.69,21.59-2.66,46.49-25.34,55.62-22.68,9.13-48.11-.98-56.8-22.56-8.69-21.59,2.66-46.49,25.34-55.62,22.68-9.13,48.11.98,56.8,22.56Z" />
          <path class="cls-13"
            d="M269.75,107.98c0,12.12,8.15,21.95,18.21,21.95,1.07,0,2.12-.13,3.14-.35,7.26-11.19,9.23-25.27,4.04-38.17-.63-1.57-1.36-3.07-2.17-4.52-1.59-.55-3.27-.86-5.01-.86-10.06,0-18.21,9.83-18.21,21.95Z" />
          <path class="cls-4"
            d="M225.49,122.74c1.49,3.7.85,7.45-1.43,8.36-2.28.92-5.33-1.34-6.82-5.04-1.49-3.7,3.22-2.69,4.5-7.49.63-2.38,2.27.47,3.76,4.17Z" />
          <path class="cls-4"
            d="M256.58,119.49c0,5.13-2.98,9.29-6.64,9.29s-6.65-4.16-6.65-9.29,5.5-11.15,6.37-7.59c1.78,7.29,6.92,2.46,6.92,7.59Z" />
          <path class="cls-8"
            d="M256.7,119.2c0,5.13-2.79,9.29-6.23,9.29s-6.23-4.16-6.23-9.29,3.96-9.95,5.8-7.05c3.09,4.85,6.65,1.92,6.65,7.05Z" />
          <path class="cls-8"
            d="M225.49,122.52c1.46,3.64.94,7.27-1.16,8.12-2.1.85-5-1.41-6.46-5.05-1.46-3.64,1.6-.94,4.1-6.82.89-2.09,2.05.12,3.51,3.76Z" />
          <path class="cls-8"
            d="M234.08,146.79c-.3,0-.56-.23-.58-.54-.02-.22-.39-5.5,4.9-8.25,3.95-2.05,14.28-4.26,25.1,2.11.28.17.37.52.21.81-.17.28-.53.37-.81.21-10.37-6.11-20.21-4.03-23.96-2.08-4.58,2.38-4.28,6.92-4.27,7.12.02.32-.22.61-.54.63-.01,0-.03,0-.05,0Z" />
        </g>
        <path class="cls-2"
          d="M248.48,66.23s-23.81-3.23-37.63,3.82c-17.94,9.16,3.82,10,2.94,10.29-.88.29-24.4,19.31-14.01,51.06,1.64,5.02,4.88-32.71,15.09-33.62,1.08-.1-.5,4.13-.2,7.06.41,4.03,2.56,7,3.53,5.49,15.29-23.91,34.77-18.29,48.61-25.48,17.19-8.93,29.83,13.28,26.85,3.72-7.45-23.91-39.89-33.22-49.59-31.46-11.01,2,4.41,9.11,4.41,9.11Z" />
        <path class="cls-14"
          d="M246.23,70.94s21.95,5.29,28.62,24.11c6.66,18.82,6.47-7.84,6.47-7.84l-8.82-11.17s-24.11-12.54-26.26-5.1Z" />
        <path class="cls-2"
          d="M296.21,143.65s6.27,68.21,13.33,70.95c7.06,2.74,19.21-3.14,19.21-5.88s-2.75-3.92-2.75-3.92l-7.45,1.96s-4.7-9.8-6.66-12.15c-1.96-2.35-3.14-50.96-3.14-50.96,0,0-9.02-15.68-12.54,0Z" />
        <path class="cls-7"
          d="M302.68,133.66s-12.94,1.32-9.21,25.63c0,0,7.69,2.89,19.26-1.62,0,0,.34-22.05-10.05-24.01Z" />
        <path class="cls-15" d="M292.09,156.2s12.15,1.57,21.17-2.74l.59,7.06s-9.6,4.12-21.56,1.96l-.2-6.27Z" />
        <path class="cls-12" d="M240.94,141.5s3.97-3.58,8.82-.49c4.85,3.09-12.79,7.84-8.82.49Z" />
        <g>
          <g>
            <path class="cls-17"
              d="M279.33,102.98c0-11.24,6.87-20.35,15.35-20.35.65,0,1.29.07,1.93.18-2.2-1.14-4.63-1.78-7.18-1.78-10.06,0-18.21,9.83-18.21,21.95s8.15,21.95,18.21,21.95c2.55,0,4.98-.64,7.18-1.78-.63.11-1.27.18-1.93.18-8.48,0-15.35-9.11-15.35-20.35Z" />
            <path class="cls-5"
              d="M296.45,121.28c-7.54,0-13.65-8.1-13.65-18.1s6.11-18.1,13.65-18.1c1.66,0,3.24.41,4.72,1.13-1.36-1.39-2.89-2.54-4.55-3.4-.63-.1-1.27-.18-1.93-.18-8.48,0-15.35,9.11-15.35,20.35s6.87,20.35,15.35,20.35c.65,0,1.29-.07,1.93-.18,1.34-.69,2.59-1.59,3.74-2.64-1.24.49-2.54.76-3.9.76Z" />
            <path class="cls-15"
              d="M307.64,102.98c0-6.73-2.52-12.75-6.47-16.77-1.47-.72-3.06-1.13-4.72-1.13-7.54,0-13.65,8.1-13.65,18.1s6.11,18.1,13.65,18.1c1.36,0,2.66-.27,3.9-.76,4.42-4.01,7.29-10.36,7.29-17.54Z" />
          </g>
          <g>
            <path class="cls-17"
              d="M279.16,88.54l5.58-5.35c-16.76-23.52-38.22-18.52-38.22-18.52,0,0-4.12,1.18-6.47,3.23,0,0,25.72-3.09,39.1,20.64Z" />
            <path class="cls-16"
              d="M240.35,70.54c23.81-3.23,37.34,19.4,37.34,19.4l1.47-1.41c-13.38-23.73-39.1-20.64-39.1-20.64-2.35,2.06.29,2.65.29,2.65Z" />
          </g>
        </g>
        <path class="cls-2"
          d="M247.5,70.84s-6.96-3.23-10.19-9.11c-3.23-5.88-5.98-7.06-4.8,1.08,1.18,8.13,3.43,10.29,3.43,10.29,0,0-8.53-15.68-10.09-13.03-1.57,2.65,4.7,17.35,4.7,17.35,0,0,27.54.2,16.95-6.57Z" />
      </g>
      <g>
        <path class="cls-15"
          d="M270.48,160.1c-.15,2.67-1.52,4.77-3.06,4.69-1.54-.09-2.67-2.32-2.52-5,.15-2.67,1.52-4.77,3.06-4.69,1.54.09,2.67,2.32,2.52,5Z" />
        <path class="cls-17"
          d="M269.6,160.05c-.15,2.68-1.52,4.78-3.06,4.69-1.54-.08-2.67-2.32-2.52-5,.15-2.67,1.52-4.77,3.06-4.69,1.54.08,2.67,2.32,2.52,5Z" />
      </g>
      <g>
        <path class="cls-15"
          d="M268.72,174.07c-.15,2.67-1.52,4.77-3.06,4.69-1.54-.08-2.67-2.32-2.52-5,.15-2.67,1.52-4.77,3.06-4.69,1.54.09,2.67,2.32,2.52,5Z" />
        <path class="cls-17"
          d="M267.84,174.02c-.15,2.68-1.52,4.78-3.06,4.69-1.54-.09-2.67-2.32-2.52-5,.15-2.67,1.52-4.77,3.06-4.69,1.54.09,2.67,2.32,2.52,5Z" />
      </g>
      <g>
        <path class="cls-17"
          d="M253.24,15.7c-11.48-6.55,5.64-20.38,10.25-8.15,2.43,6.44-3.36,14.5-6.09,20.19-.73,1.53,1.55,2.87,2.28,1.34,2.71-5.65,7.81-12.92,7.12-19.54-.5-4.81-4.4-9.02-9.28-9.49-10.54-1.01-14.64,12.78-5.62,17.93,1.48.85,2.82-1.44,1.33-2.28h0Z" />
        <path class="cls-17"
          d="M258.92,38.66c.1,1.27.19,2.54.29,3.81.87-.12,1.73-.23,2.6-.35-.13-.87-.26-1.75-.39-2.62-.11-.71-1-1.1-1.63-.92-.76.21-1.03.92-.92,1.63.13.87.26,1.75.39,2.62.22,1.47,2.71,1.13,2.6-.35-.1-1.27-.19-2.54-.29-3.81-.13-1.69-2.77-1.7-2.65,0h0Z" />
        <path class="cls-17"
          d="M290.31,10.55c-3.5,7.32-7,14.64-10.5,21.96-.73,1.53,1.55,2.87,2.28,1.34,3.5-7.32,7-14.64,10.5-21.96.73-1.53-1.55-2.87-2.28-1.34h0Z" />
        <path class="cls-17"
          d="M274.14,41.43c-1.06,1.12-.24,3.13,1.38,2.93.69-.08,1.22-.61,1.4-1.28.21-.78-.16-1.46-.78-1.9-.58-.41-1.47-.1-1.81.48-.39.66-.11,1.4.47,1.81.03.02.06.04.09.06-.16-.16-.32-.32-.47-.48-.08-.25-.09-.51-.03-.75.16-.16.32-.32.47-.47.12-.03.25-.07.37-.1.22.06.45.12.67.18.19.18.32.38.38.63-.06.22-.12.44-.18.67-.03.03-.06.06-.09.1,1.17-1.24-.7-3.11-1.87-1.87h0Z" />
        <path class="cls-17"
          d="M303.65,51.51c6.73-5.07.02-15.55-6.96-10.39-2.24,1.66-2.88,5.01-1.2,7.3,2.86,3.88,6.26-.12,9.03-1.63,1.28-.7.39-2.99-1.02-2.42-6.58,2.68.2,11.9,5.9,6.29,4.86-4.77,4.25-18.88-3.79-20.11-9.35-1.43-18.24,10.7-16.93,19.2,1.24,8.04,10.91,13.09,17.05,6.47,1.16-1.25-.71-3.12-1.87-1.87-4.18,4.5-10.77,1.74-12.31-3.72-1.33-4.7.85-9.32,4.06-12.69,3.23-3.39,11.08-8.28,13.43-1.1.57,1.74.51,3.77.41,5.57-.04,1.24-.2,2.46-.47,3.67-.66,3.44-2.26,3.72-4.77.84-.34-.81-.68-1.61-1.02-2.42-.92.5-1.79,1.53-2.73,1.93-1.67,1.62-1.7.32-.08-3.9,4.15,1.55,4.8,3.78,1.94,6.69-1.34,1.01-.03,3.31,1.33,2.28h0Z" />
        <path class="cls-17"
          d="M223.33,29.46c3.66,4.8,6.95,9.87,10.61,14.67,1.02,1.34,3.32.02,2.29-1.34-3.66-4.8-6.95-9.87-10.61-14.67-1.02-1.34-3.32-.02-2.29,1.34h0Z" />
        <path class="cls-17"
          d="M232.81,26.87c3.19,4.67,6.89,8.96,10.07,13.62.95,1.4,3.25.08,2.29-1.34-3.19-4.67-6.89-8.96-10.07-13.62-.95-1.4-3.25-.08-2.29,1.34h0Z" />
        <path class="cls-17"
          d="M223.45,38.94c4.4-5.3,10.27-8.61,17.07-9.66,1.68-.26.96-2.81-.7-2.55-7.21,1.11-13.59,4.73-18.24,10.34-1.08,1.3.78,3.18,1.87,1.87h0Z" />
        <path class="cls-17"
          d="M226.32,42.44c5.89-2.32,11.79-4.63,17.68-6.95,1.57-.62.88-3.18-.7-2.55-5.89,2.32-11.79,4.63-17.68,6.95-1.57.62-.88,3.18.7,2.55h0Z" />
      </g>
      <path class="cls-17"
        d="M254.36,127.72c0,1.12-1.3,2.02-2.9,2.02s-2.9-.9-2.9-2.02,1.3-2.02,2.9-2.02,2.9.9,2.9,2.02Z" />
      <path class="cls-17"
        d="M225.76,130.06c.2.73-.75,1.62-2.11,1.99-1.36.37-2.62.07-2.82-.66-.2-.73.75-1.62,2.11-1.99,1.36-.37,2.62-.07,2.82.66Z" />
    </g>
  </g>
</svg>