<?xml version="1.0" encoding="UTF-8"?>
<svg id="Calque_1" data-name="Calque 1" xmlns="http://www.w3.org/2000/svg" version="1.1" viewBox="0 0 32 32">
  <defs>
    <style>
      .cls-1 {
        fill: #00bc77;
        stroke-width: 0px;
      }
    </style>
  </defs>
  <path class="cls-1" d="M15,9.3v4.4s-.1,0-.2-.2c-.4-.1-.7-.3-1-.5s-.5-.4-.7-.7-.2-.6-.2-.9,0-.8.4-1.2c.3-.4.6-.6,1.1-.8.2,0,.4-.1.6-.2h0Z"/>
  <path class="cls-1" d="M9.5,8.5c-.7.9-1,2-1,3.2s.5,2.7,1.5,3.5c1,.9,2.3,1.5,4,1.9l1,.2v5.2c-.3,0-.6-.2-.9-.3-.6-.2-1-.6-1.4-1-.3-.4-.5-1-.6-1.7h-4.1c0,1.5.4,2.7,1.1,3.6.7,1,1.6,1.7,2.8,2.2.9.4,1.9.7,3.1.7v5.7C6.6,31.4,0,24.5,0,16S6.6.6,15,0v5.7c-1,0-1.9.3-2.8.7-1.2.5-2.1,1.2-2.7,2.1Z"/>
  <path class="cls-1" d="M19.8,20.3c0,.4,0,.9-.4,1.3-.3.4-.7.7-1.2.9h-.2c-.3.1-.7.2-1,.3v-4.8c.4.1.8.3,1.2.4.5.2.9.5,1.2.8.3.3.4.7.4,1.1Z"/>
  <path class="cls-1" d="M32,16c0,8.5-6.7,15.4-15,16v-5.7c1.3,0,2.3-.3,3.3-.7,1.2-.5,2.1-1.2,2.7-2.1s.9-2,.9-3.2-.2-1.6-.5-2.2-.7-1.2-1.3-1.7c-.5-.5-1.2-.9-1.9-1.2s-1.5-.6-2.4-.8l-.8-.2v-4.9c.6,0,1,.3,1.4.6.6.4.9,1.1,1,1.8h4.1c0-1.2-.3-2.3-1-3.2-.6-.9-1.5-1.6-2.6-2.1-.8-.4-1.8-.7-2.9-.7V0c8.3.6,15,7.6,15,16h0Z"/>
</svg>